#!OML:ASF I:\golf\golf\golf 2\Subject 1\2002-09-07\Subject1.ASF
:FULLY-SPECIFIED
:DEGREES
196
root 1.08368 17.7875 -6.77523 23.1178 16.3489 -0.247275
lowerback 10.6509 1.55948 -0.699961
upperback 7.60717 2.0541 6.36122
thorax 1.7395 0.880662 6.89198
lowerneck -15.9417 -4.09151 -2.17614
upperneck 34.8358 -2.61683 -6.71938
head 14.6598 -2.19771 -2.80109
rclavicle 1.43125e-014 -8.5875e-014
rhumerus -8.8631 6.77036 -74.1978
rradius 33.9894
rwrist -11.9818
rhand -21.4555 10.0506
rfingers 7.12502
rthumb 4.9345 -19.8719
lclavicle 1.43125e-014 -8.5875e-014
lhumerus -22.4945 -11.7137 94.4584
lradius 42.6954
lwrist 10.1159
lhand -10.2125 31.3285
lfingers 7.12502
lthumb 15.779 60.7054
rfemur -49.7958 -1.79553 17.7508
rtibia 27.1389
rfoot -3.70261 -5.61441
rtoes -5.29146
lfemur -23.7649 -4.07161 -16.3447
ltibia 25.9347
lfoot -21.4923 -5.89756
ltoes -4.10845
197
root 1.05156 17.7781 -6.71735 23.5621 16.6156 -0.166218
lowerback 11.1797 1.62155 -0.561451
upperback 7.73313 2.15931 6.53893
thorax 1.57213 0.936289 6.98467
lowerneck -16.0062 -4.14969 -2.17962
upperneck 34.4992 -2.67211 -6.83295
head 14.5153 -2.23475 -2.84016
rclavicle 1.59028e-015 -1.59028e-015
rhumerus -8.17524 7.05629 -73.8308
rradius 33.9415
rwrist -12.0111
rhand -21.432 10.1332
rfingers 7.12502
rthumb 4.95727 -19.7888
lclavicle 1.59028e-015 -1.59028e-015
lhumerus -22.5216 -11.77 94.6523
lradius 43.2653
lwrist 10.2092
lhand -10.2953 31.2477
lfingers 7.12502
lthumb 15.6992 60.6308
rfemur -50.362 -2.2498 18.1198
rtibia 27.5786
rfoot -3.60044 -5.20683
rtoes -4.95142
lfemur -24.038 -4.14029 -16.146
ltibia 25.7533
lfoot -21.3874 -5.97462
ltoes -4.13464
198
root 1.01697 17.7722 -6.65864 24.1008 16.9559 0.0185429
lowerback 11.6228 1.60637 -0.287453
upperback 7.8808 2.17184 6.58343
thorax 1.49454 0.951086 6.86715
lowerneck -16.1743 -4.24681 -2.25779
upperneck 34.1399 -2.8241 -6.76083
head 14.3868 -2.29919 -2.80854
rclavicle 5.40694e-014 2.22639e-014
rhumerus -7.35024 7.59338 -73.5334
rradius 33.8004
rwrist -12.1488
rhand -21.506 10.1572
rfingers 7.12502
rthumb 4.88579 -19.7664
lclavicle 5.40694e-014 2.22639e-014
lhumerus -22.3524 -11.8056 94.6533
lradius 43.6611
lwrist 10.2511
lhand -10.2782 31.1756
lfingers 7.12502
lthumb 15.7157 60.5574
rfemur -50.9662 -2.68398 18.3575
rtibia 27.9789
rfoot -3.48033 -4.74219
rtoes -4.45112
lfemur -24.39 -4.47992 -15.9742
ltibia 25.5874
lfoot -21.4174 -5.79557
ltoes -4.83319
199
root 0.982919 17.7694 -6.59638 24.6566 17.1943 0.198464
lowerback 12.0342 1.86027 0.0793076
upperback 7.91394 2.5494 6.43531
thorax 1.2797 1.15947 6.44218
lowerneck -16.0413 -4.5549 -1.83522
upperneck 33.7948 -3.49506 -6.56597
head 14.1595 -2.50014 -2.88492
rclavicle 1.90833e-014 6.04305e-014
rhumerus -6.91352 7.20239 -73.3403
rradius 33.636
rwrist -12.2932
rhand -21.4958 10.0899
rfingers 7.12502
rthumb 4.89566 -19.8335
lclavicle 1.90833e-014 6.04305e-014
lhumerus -22.3933 -12.8588 94.6189
lradius 44.0229
lwrist 10.4294
lhand -10.201 31.0465
lfingers 7.12502
lthumb 15.7901 60.4225
rfemur -51.5601 -3.07524 18.6171
rtibia 28.3216
rfoot -3.23784 -4.11069
rtoes -2.76019
lfemur -24.7304 -4.73881 -15.8406
ltibia 25.4397
lfoot -21.3599 -5.6508
ltoes -5.30617
200
root 0.948238 17.7709 -6.53312 25.0981 17.3987 0.238448
lowerback 12.5252 1.70881 0.101601
upperback 8.13518 2.36606 6.75733
thorax 1.26276 1.05925 6.79438
lowerneck -16.3067 -4.40673 -2.34174
upperneck 33.4655 -3.08388 -6.67681
head 14.1065 -2.40575 -2.77102
rclavicle -4.29375e-014 -4.6118e-014
rhumerus -5.63441 8.53662 -72.6682
rradius 33.4883
rwrist -12.7388
rhand -21.3673 9.92115
rfingers 7.12502
rthumb 5.01973 -19.9994
lclavicle -4.29375e-014 -4.6118e-014
lhumerus -22.3399 -12.1842 94.8609
lradius 44.6895
lwrist 10.5271
lhand -10.2629 31.1166
lfingers 7.12502
lthumb 15.7305 60.4973
rfemur -52.0573 -3.34457 19.0037
rtibia 28.6256
rfoot -2.83977 -3.40955
rtoes 0.222964
lfemur -25.0004 -4.88614 -15.5727
ltibia 25.2816
lfoot -21.0912 -5.80579
ltoes -4.11297
201
root 0.912574 17.7778 -6.4709 25.5306 17.6853 0.277496
lowerback 12.8611 1.83837 0.205069
upperback 8.3596 2.55384 7.0178
thorax 1.2945 1.14834 6.99277
lowerneck -16.267 -4.55594 -2.35863
upperneck 33.0025 -3.26586 -6.8234
head 13.8833 -2.50094 -2.83033
rclavicle -1.59028e-015 -3.49861e-014
rhumerus -4.6912 8.83155 -71.954
rradius 33.3538
rwrist -12.9528
rhand -21.3049 10.0546
rfingers 7.12502
rthumb 5.07996 -19.8646
lclavicle -1.59028e-015 -3.49861e-014
lhumerus -22.467 -12.6584 95.1843
lradius 45.598
lwrist 10.8432
lhand -10.3521 31.1799
lfingers 7.12502
lthumb 15.6445 60.5673
rfemur -52.5647 -3.5732 19.3678
rtibia 28.9078
rfoot -2.3195 -2.84172
rtoes 2.99533
lfemur -25.2948 -5.02013 -15.2945
ltibia 25.1314
lfoot -20.9907 -5.90826
ltoes -3.69267
202
root 0.876575 17.7797 -6.4086 26.0847 17.9903 0.480642
lowerback 13.367 1.98056 0.42765
upperback 8.37927 2.78362 7.02645
thorax 1.02549 1.27521 6.83009
lowerneck -16.0432 -4.75002 -2.11401
upperneck 32.6168 -3.65544 -6.80389
head 13.6398 -2.63 -2.89583
rclavicle -8.90555e-014 0
rhumerus -4.11101 8.97743 -71.5772
rradius 33.1927
rwrist -13.0866
rhand -21.4413 10.1907
rfingers 7.12502
rthumb 4.94823 -19.7315
lclavicle -8.90555e-014 0
lhumerus -22.8188 -13.4267 95.2962
lradius 46.384
lwrist 11.0816
lhand -10.3666 30.9942
lfingers 7.12502
lthumb 15.6306 60.3827
rfemur -53.1524 -3.75508 19.494
rtibia 29.1855
rfoot -1.49575 -2.40695
rtoes 2.20654
lfemur -25.6466 -5.21198 -15.1772
ltibia 24.9536
lfoot -21.009 -5.80685
ltoes -4.89329
203
root 0.838208 17.7746 -6.34588 26.6943 18.2897 0.753201
lowerback 13.844 2.05304 0.579164
upperback 8.42493 2.91355 7.01704
thorax 0.81153 1.34818 6.70232
lowerneck -15.9513 -4.86647 -1.83562
upperneck 32.2598 -3.89582 -6.90058
head 13.4417 -2.70986 -2.99544
rclavicle -3.18055e-014 1.59028e-015
rhumerus -3.38651 9.24831 -71.2331
rradius 33.0781
rwrist -13.1726
rhand -21.5461 10.0228
rfingers 7.12502
rthumb 4.84702 -19.9017
lclavicle -3.18055e-014 1.59028e-015
lhumerus -22.9737 -14.0396 95.3387
lradius 46.9492
lwrist 11.2908
lhand -10.4864 30.9779
lfingers 7.12502
lthumb 15.5152 60.3754
rfemur -53.714 -3.69031 19.3572
rtibia 29.4827
rfoot -0.53802 -1.94099
rtoes -6.61804
lfemur -25.9879 -5.40753 -15.092
ltibia 24.6803
lfoot -20.8691 -5.83268
ltoes -5.52633
204
root 0.799266 17.7755 -6.2814 27.3212 18.5125 1.02759
lowerback 14.3333 2.11551 0.818306
upperback 8.48908 3.03714 6.87644
thorax 0.623061 1.42211 6.3819
lowerneck -16.0021 -4.97192 -1.43848
upperneck 31.954 -4.17987 -6.90747
head 13.2924 -2.78599 -3.09386
rclavicle 3.49861e-014 5.24792e-014
rhumerus -2.5215 9.19895 -71.0948
rradius 32.8294
rwrist -13.0676
rhand -21.4234 10.0081
rfingers 7.12502
rthumb 4.96552 -19.9138
lclavicle 3.49861e-014 5.24792e-014
lhumerus -23.0702 -14.797 95.1666
lradius 47.5074
lwrist 11.5983
lhand -10.6539 31.1489
lfingers 7.12502
lthumb 15.3539 60.5589
rfemur -54.3122 -3.45664 19.1231
rtibia 29.8188
rfoot 0.00920532 -1.1756
rtoes -20.381
lfemur -26.3243 -5.32849 -15.0977
ltibia 24.3972
lfoot -20.6441 -6.0838
ltoes -5.43077
205
root 0.759703 17.7899 -6.21406 27.9938 18.7232 1.30712
lowerback 14.4862 2.20259 0.505391
upperback 8.70625 3.11869 7.13836
thorax 0.738637 1.44347 6.83763
lowerneck -16.0643 -5.09253 -1.60315
upperneck 31.5087 -4.31441 -6.92337
head 13.1184 -2.86573 -3.07169
rclavicle -4.77083e-014 -1.90833e-014
rhumerus -1.18377 9.84279 -70.2879
rradius 32.3829
rwrist -13.1274
rhand -21.3026 10.0348
rfingers 7.12502
rthumb 5.08218 -19.8842
lclavicle -4.77083e-014 -1.90833e-014
lhumerus -22.8848 -14.8446 95.4827
lradius 47.9065
lwrist 11.6166
lhand -10.5784 31.2248
lfingers 7.12502
lthumb 15.4266 60.6291
rfemur -54.973 -3.22981 18.8953
rtibia 30.1986
rfoot -0.629339 -3.4483
rtoes 2.58932
lfemur -26.7365 -5.29266 -15.0915
ltibia 24.1871
lfoot -20.3794 -6.31585
ltoes -4.83217
206
root 0.714452 17.7954 -6.15167 28.7278 19.1332 1.59415
lowerback 14.7821 2.1849 0.435723
upperback 8.82555 3.10124 7.3169
thorax 0.700978 1.42835 7.07089
lowerneck -16.1448 -5.19656 -1.7849
upperneck 31.1303 -4.46117 -6.80026
head 12.9822 -2.93461 -2.99917
rclavicle 1.59028e-015 5.40694e-014
rhumerus 0.149194 10.5282 -69.6016
rradius 31.9271
rwrist -13.1321
rhand -21.1913 10.004
rfingers 7.12502
rthumb 5.18968 -19.9125
lclavicle 1.59028e-015 5.40694e-014
lhumerus -22.6673 -14.8652 95.6259
lradius 48.121
lwrist 11.6153
lhand -10.5348 30.8656
lfingers 7.12502
lthumb 15.4686 60.2667
rfemur -55.6492 -3.21951 18.8002
rtibia 30.5844
rfoot -1.17204 -4.41083
rtoes 11.786
lfemur -27.3212 -5.48605 -14.9315
ltibia 24.0178
lfoot -19.9806 -6.46482
ltoes -4.5561
207
root 0.664074 17.7868 -6.09764 29.5759 19.6857 1.99653
lowerback 15.1811 2.1252 0.584197
upperback 8.86924 3.05998 7.32897
thorax 0.548606 1.41506 6.99477
lowerneck -16.2788 -5.32957 -1.69478
upperneck 30.7772 -4.73951 -6.64574
head 12.853 -3.0262 -2.98365
rclavicle -1.90833e-014 -1.59028e-014
rhumerus 1.41381 10.7935 -69.1444
rradius 31.4583
rwrist -13.0902
rhand -21.0136 10.0014
rfingers 7.12502
rthumb 5.36126 -19.9108
lclavicle -1.90833e-014 -1.59028e-014
lhumerus -22.5546 -15.3377 95.5425
lradius 48.5482
lwrist 11.761
lhand -10.6845 30.6218
lfingers 7.12502
lthumb 15.3244 60.034
rfemur -56.4116 -3.35628 18.6501
rtibia 30.9328
rfoot -1.31294 -4.86013
rtoes 13.5752
lfemur -28.113 -5.45299 -14.9171
ltibia 23.929
lfoot -19.6535 -6.67899
ltoes -6.19344
208
root 0.619039 17.7904 -6.04513 30.3365 20.1765 2.41252
lowerback 15.7157 2.101 0.782011
upperback 8.9273 3.07746 7.33011
thorax 0.336791 1.43318 6.86608
lowerneck -16.3912 -5.49651 -1.57542
upperneck 30.3933 -5.05946 -6.54104
head 12.7036 -3.1395 -2.99606
rclavicle -5.88403e-014 -4.6118e-014
rhumerus 2.68494 11.0998 -68.5952
rradius 30.8832
rwrist -12.9287
rhand -21.0942 9.89932
rfingers 7.12502
rthumb 5.28344 -20.0148
lclavicle -5.88403e-014 -4.6118e-014
lhumerus -22.5696 -16.0018 95.4844
lradius 49.306
lwrist 11.9594
lhand -10.7191 30.793
lfingers 7.12502
lthumb 15.2911 60.2078
rfemur -57.0592 -3.29992 18.2789
rtibia 31.229
rfoot -1.34874 -5.57388
rtoes 15.5471
lfemur -28.8119 -5.19022 -15.0681
ltibia 23.9536
lfoot -19.4638 -7.06472
ltoes -7.87223
209
root 0.579353 17.8002 -5.99094 30.9252 20.6318 2.76007
lowerback 16.3682 2.08967 1.00825
upperback 9.0341 3.12303 7.39624
thorax 0.112476 1.46404 6.78621
lowerneck -16.5057 -5.67111 -1.60332
upperneck 29.9961 -5.35343 -6.40585
head 12.5597 -3.25468 -2.96826
rclavicle 3.18055e-014 -5.24792e-014
rhumerus 3.96782 11.6334 -67.8322
rradius 30.3225
rwrist -12.5283
rhand -21.116 9.55025
rfingers 7.12502
rthumb 5.26231 -20.3644
lclavicle 3.18055e-014 -5.24792e-014
lhumerus -22.463 -16.5643 95.4931
lradius 49.8961
lwrist 12.0411
lhand -10.4572 30.983
lfingers 7.12502
lthumb 15.5433 60.3784
rfemur -57.4986 -3.3292 18.0654
rtibia 31.4806
rfoot -1.4054 -5.81611
rtoes 11.6887
lfemur -29.3203 -5.07002 -15.1485
ltibia 23.9898
lfoot -19.0335 -7.51659
ltoes -7.68885
